# xmcd
#
# Track frame offsets: 
#        150
#        47903
#        73013
#        95378
#        123524
#        150336
#        169254
#
# Disc length: 2546 seconds
#
# Revision: 0
# Processed by: cddbd v1.5.2PL0 Copyright (c) Steve Scherf et al.
# Submitted via: ExactAudioCopy v1.0b4
#
DISCID=5709f007
DTITLE=Wee Gee - Hold On (To Your Dreams)
DYEAR=1980
DGENRE=Soul
TTITLE0=Hold On (To Your Dreams)
TTITLE1=Ain't Nothin' Missin' (But The Music)
TTITLE2=Don't Make Me The Reason
TTITLE3=(Just When) My World Seemed Blue
TTITLE4=Let Me Lay With You
TTITLE5=Remember The Love
TTITLE6=You've Been A Part Of Me
EXTD=
EXTT0=
EXTT1=
EXTT2=
EXTT3=
EXTT4=
EXTT5=
EXTT6=
PLAYORDER=
